<mxfile host="app.diagrams.net" modified="2023-04-15T05:47:41.910Z" agent="Mozilla/5.0 (Macintosh; Intel Mac OS X 10_15_7) AppleWebKit/537.36 (KHTML, like Gecko) Chrome/112.0.0.0 Safari/537.36" version="21.1.8" etag="b9dlMsgDbHYkuGiQG6tL" type="github">
  <diagram name="Page-1" id="KEuOvahRGgDqKRXdg5OR">
    <mxGraphModel>
      <root>
        <mxCell id="0" />
        <mxCell id="1" parent="0" />
      </root>
    </mxGraphModel>
  </diagram>
</mxfile>
